<svg width="20" height="20" viewBox="0 0 20 20" fill="none" xmlns="http://www.w3.org/2000/svg">
<g clip-path="url(#clip0_2_418)">
<path d="M6.66665 1.66663L8.23332 3.23329M11.7667 3.23329L13.3333 1.66663M7.49999 5.83329V4.99996C7.49999 4.33692 7.76338 3.70103 8.23222 3.23219C8.70106 2.76335 9.33694 2.49996 9.99999 2.49996C10.663 2.49996 11.2989 2.76335 11.7678 3.23219C12.2366 3.70103 12.5 4.33692 12.5 4.99996V5.83329M6.29999 9.99996H13.6917M6.24999 14.1666H13.75M4.16665 5.83329C3.75662 5.84124 3.35484 5.94993 2.99673 6.1498C2.63862 6.34966 2.33518 6.63455 2.11315 6.97936C1.89112 7.32417 1.75733 7.71831 1.72357 8.12702C1.68981 8.53574 1.75712 8.94648 1.91956 9.32305C2.082 9.69962 2.33459 10.0304 2.65505 10.2864C2.97551 10.5423 3.35401 10.7154 3.75718 10.7905C4.16035 10.8656 4.57581 10.8404 4.96693 10.7171C5.35806 10.5938 5.71283 10.3761 5.99999 10.0833C7.58332 8.33329 9.99999 5.83329 9.99999 5.83329C9.99999 5.83329 12.4167 8.33329 14 10.0833C14.2871 10.3761 14.6419 10.5938 15.033 10.7171C15.4242 10.8404 15.8396 10.8656 16.2428 10.7905C16.646 10.7154 17.0245 10.5423 17.3449 10.2864C17.6654 10.0304 17.918 9.69962 18.0804 9.32305C18.2429 8.94648 18.3102 8.53574 18.2764 8.12702C18.2426 7.71831 18.1088 7.32417 17.8868 6.97936C17.6648 6.63455 17.3614 6.34966 17.0032 6.1498C16.6451 5.94993 16.2433 5.84124 15.8333 5.83329H4.16665Z" stroke="#2C2C2C" stroke-width="1.66667" stroke-linecap="round" stroke-linejoin="round"/>
<path d="M12.9166 8.91663C13.6666 9.66663 14.0833 10.6666 14.1666 11.6666C14.1666 16.5 9.99998 18.3333 9.99998 18.3333C9.99998 18.3333 5.83331 16.5 5.83331 11.6666C5.91665 10.6666 6.33331 9.66663 7.08331 8.91663" stroke="#2C2C2C" stroke-width="1.66667" stroke-linecap="round" stroke-linejoin="round"/>
</g>
<defs>
<clipPath id="clip0_2_418">
<rect width="20" height="20" fill="white"/>
</clipPath>
</defs>
</svg>
