<svg width="46" height="46" viewBox="0 0 46 46" fill="none" xmlns="http://www.w3.org/2000/svg">
<path d="M15.3333 3.8335L18.9366 7.43683M27.0633 7.43683L30.6666 3.8335M17.25 13.4168V11.5002C17.25 9.97517 17.8558 8.51263 18.9341 7.4343C20.0124 6.35596 21.475 5.75016 23 5.75016C24.525 5.75016 25.9875 6.35596 27.0658 7.4343C28.1442 8.51263 28.75 9.97517 28.75 11.5002V13.4168M14.49 23.0002H31.4908M14.375 32.5835H31.625M9.5833 13.4168C8.64023 13.4351 7.71613 13.6851 6.89248 14.1448C6.06882 14.6045 5.3709 15.2597 4.86024 16.0528C4.34958 16.8459 4.04187 17.7524 3.96422 18.6924C3.88657 19.6325 4.04138 20.5772 4.41499 21.4433C4.7886 22.3094 5.36955 23.0703 6.10661 23.6589C6.84368 24.2475 7.71423 24.6457 8.64152 24.8185C9.56881 24.9912 10.5244 24.9332 11.424 24.6496C12.3235 24.3659 13.1395 23.8653 13.8 23.1918C17.4416 19.1668 23 13.4168 23 13.4168C23 13.4168 28.5583 19.1668 32.2 23.1918C32.8604 23.8653 33.6764 24.3659 34.576 24.6496C35.4756 24.9332 36.4311 24.9912 37.3584 24.8185C38.2857 24.6457 39.1563 24.2475 39.8933 23.6589C40.6304 23.0703 41.2113 22.3094 41.5849 21.4433C41.9586 20.5772 42.1134 19.6325 42.0357 18.6924C41.9581 17.7524 41.6504 16.8459 41.1397 16.0528C40.629 15.2597 39.9311 14.6045 39.1075 14.1448C38.2838 13.6851 37.3597 13.4351 36.4166 13.4168H9.5833Z" stroke="#FFB835" stroke-width="3.83333" stroke-linecap="round" stroke-linejoin="round"/>
<path d="M29.7083 20.5085C31.4333 22.2335 32.3916 24.5335 32.5833 26.8335C32.5833 37.9502 23 42.1669 23 42.1669C23 42.1669 13.4166 37.9502 13.4166 26.8335C13.6083 24.5335 14.5666 22.2335 16.2916 20.5085" stroke="#FFB835" stroke-width="3.83333" stroke-linecap="round" stroke-linejoin="round"/>
</svg>
