<svg width="54" height="56" viewBox="0 0 54 56" fill="none" xmlns="http://www.w3.org/2000/svg">
<path d="M27 0.875C12.0885 0.875 0.00695801 13.0156 0.00695801 28C0.00695801 42.9844 12.0885 55.125 27 55.125C41.9115 55.125 53.993 42.9844 53.993 28C53.993 13.0156 41.9115 0.875 27 0.875ZM27 49.875C14.9946 49.875 5.23142 40.0641 5.23142 28C5.23142 15.9359 14.9946 6.125 27 6.125C39.0054 6.125 48.7686 15.9359 48.7686 28C48.7686 40.0641 39.0054 49.875 27 49.875ZM18.2926 26.25C20.2191 26.25 21.7755 24.6859 21.7755 22.75C21.7755 20.8141 20.2191 19.25 18.2926 19.25C16.366 19.25 14.8096 20.8141 14.8096 22.75C14.8096 24.6859 16.366 26.25 18.2926 26.25ZM35.7074 26.25C37.6339 26.25 39.1904 24.6859 39.1904 22.75C39.1904 20.8141 37.6339 19.25 35.7074 19.25C33.7809 19.25 32.2244 20.8141 32.2244 22.75C32.2244 24.6859 33.7809 26.25 35.7074 26.25ZM36.1428 34.1906C33.8789 36.925 30.5374 38.5 27 38.5C23.4626 38.5 20.1211 36.9359 17.8572 34.1906C16.932 33.075 15.2776 32.9328 14.1783 33.8516C13.0681 34.7812 12.9266 36.4328 13.8409 37.5484C17.1062 41.4859 21.9061 43.7391 27 43.7391C32.0938 43.7391 36.8938 41.4859 40.1591 37.5484C41.0843 36.4328 40.9319 34.7812 39.8217 33.8516C38.7224 32.9328 37.068 33.075 36.1428 34.1906Z" fill="currentColor"/>
</svg>
