<svg width="20" height="20" viewBox="0 0 20 20" fill="none" xmlns="http://www.w3.org/2000/svg">
<path fill-rule="evenodd" clip-rule="evenodd" d="M5.00001 5C4.55798 5 4.13406 5.17559 3.8215 5.48816C3.50894 5.80072 3.33334 6.22464 3.33334 6.66667V9.16667C3.33334 9.60869 3.50894 10.0326 3.8215 10.3452C4.13406 10.6577 4.55798 10.8333 5.00001 10.8333H7.50001C7.50001 11.4964 7.23662 12.1323 6.76778 12.6011C6.29894 13.0699 5.66305 13.3333 5.00001 13.3333H4.16668C3.94566 13.3333 3.7337 13.4211 3.57742 13.5774C3.42114 13.7337 3.33334 13.9457 3.33334 14.1667C3.33334 14.3877 3.42114 14.5996 3.57742 14.7559C3.7337 14.9122 3.94566 15 4.16668 15H5.00001C6.10508 15 7.16489 14.561 7.94629 13.7796C8.72769 12.9982 9.16668 11.9384 9.16668 10.8333V6.66667C9.16668 6.22464 8.99108 5.80072 8.67852 5.48816C8.36596 5.17559 7.94204 5 7.50001 5H5.00001ZM12.5 5C12.058 5 11.6341 5.17559 11.3215 5.48816C11.0089 5.80072 10.8333 6.22464 10.8333 6.66667V9.16667C10.8333 9.60869 11.0089 10.0326 11.3215 10.3452C11.6341 10.6577 12.058 10.8333 12.5 10.8333H15C15 11.4964 14.7366 12.1323 14.2678 12.6011C13.7989 13.0699 13.1631 13.3333 12.5 13.3333H11.6667C11.4457 13.3333 11.2337 13.4211 11.0774 13.5774C10.9211 13.7337 10.8333 13.9457 10.8333 14.1667C10.8333 14.3877 10.9211 14.5996 11.0774 14.7559C11.2337 14.9122 11.4457 15 11.6667 15H12.5C13.6051 15 14.6649 14.561 15.4463 13.7796C16.2277 12.9982 16.6667 11.9384 16.6667 10.8333V6.66667C16.6667 6.22464 16.4911 5.80072 16.1785 5.48816C15.866 5.17559 15.442 5 15 5H12.5Z" fill="#2C2C2C"/>
</svg>
