<svg width="58" height="58" viewBox="0 0 58 58" fill="none" xmlns="http://www.w3.org/2000/svg">
<path d="M29 1.8125C13.9848 1.8125 1.8125 13.9848 1.8125 29C1.8125 44.0152 13.9848 56.1875 29 56.1875C44.0152 56.1875 56.1875 44.0152 56.1875 29C56.1875 13.9848 44.0152 1.8125 29 1.8125ZM45.6612 45.6612C41.5299 49.7802 36.013 52.2135 30.1856 52.4871C24.3581 52.7606 18.6376 50.8548 14.1386 47.141C9.63953 43.4271 6.68435 38.1713 5.84881 32.3976C5.01327 26.6239 6.35724 20.7459 9.61884 15.909C12.8804 11.072 17.826 7.62268 23.4919 6.23299C29.1579 4.8433 35.1382 5.61283 40.2678 8.39165C45.3973 11.1705 49.3085 15.7595 51.2393 21.2646C53.1702 26.7696 52.9823 32.7964 50.7123 38.1705C49.5293 40.9708 47.8139 43.5147 45.6612 45.6612Z" fill="currentColor"/>
<path d="M29 43.4999C32.1246 43.4999 35.1212 42.2587 37.3306 40.0493C39.54 37.8399 40.7812 34.8433 40.7812 31.7187H17.2188C17.2188 34.8433 18.46 37.8399 20.6694 40.0493C22.8788 42.2587 25.8754 43.4999 29 43.4999ZM23.3084 25.8611L25.6291 23.0762L19.0312 17.5781L12.4334 23.0762L14.7541 25.8611L19.0312 22.2967L23.3084 25.8611ZM32.3709 23.0762L34.6916 25.8611L38.9688 22.2967L43.2459 25.8611L45.5666 23.0762L38.9688 17.5781L32.3709 23.0762Z" fill="currentColor"/>
</svg>
