<svg width="58" height="58" viewBox="0 0 58 58" fill="none" xmlns="http://www.w3.org/2000/svg">
<!-- <path d="M10 0.625C4.82234 0.625 0.625 4.82234 0.625 10C0.625 15.1777 4.82234 19.375 10 19.375C15.1777 19.375 19.375 15.1777 19.375 10C19.375 4.82234 15.1777 0.625 10 0.625ZM15.7452 15.7452C14.3206 17.1656 12.4183 18.0047 10.4088 18.099C8.39935 18.1933 6.42675 17.5361 4.87536 16.2555C3.32398 14.9749 2.30495 13.1625 2.01683 11.1716C1.72871 9.18064 2.19215 7.15375 3.31684 5.48585C4.44153 3.81794 6.14691 2.62851 8.10067 2.14931C10.0544 1.6701 12.1166 1.93546 13.8854 2.89367C15.6542 3.85188 17.0029 5.43431 17.6687 7.3326C18.3345 9.2309 18.2698 11.3091 17.487 13.1622C17.0791 14.1278 16.4875 15.0051 15.7452 15.7452Z" fill="black"/> -->
<path d="M29 37.5791L31.7792 40.3583C32.0208 40.5999 32.3028 40.7208 32.625 40.7208C32.9472 40.7208 33.2292 40.5999 33.4708 40.3583L36.25 37.5791L37.3375 38.6666C37.7 39.0291 38.1229 39.2103 38.6063 39.2103C39.0896 39.2103 39.5125 39.0291 39.875 38.6666C40.2375 38.3041 40.4188 37.8812 40.4188 37.3978C40.4188 36.9145 40.2375 36.4916 39.875 36.1291L37.0958 33.3499C36.8542 33.1083 36.5722 32.9874 36.25 32.9874C35.9278 32.9874 35.6458 33.1083 35.4042 33.3499L32.625 36.1291L29.8458 33.3499C29.6042 33.1083 29.3222 32.9874 29 32.9874C28.6778 32.9874 28.3958 33.1083 28.1542 33.3499L25.375 36.1291L22.5958 33.3499C22.3542 33.1083 22.0722 32.9874 21.75 32.9874C21.4278 32.9874 21.1458 33.1083 20.9042 33.3499L18.125 36.1291C17.7625 36.4916 17.5813 36.9145 17.5813 37.3978C17.5813 37.8812 17.7625 38.3041 18.125 38.6666C18.4875 39.0291 18.9104 39.2103 19.3938 39.2103C19.8771 39.2103 20.3 39.0291 20.6625 38.6666L21.75 37.5791L24.5292 40.3583C24.7708 40.5999 25.0528 40.7208 25.375 40.7208C25.6972 40.7208 25.9792 40.5999 26.2208 40.3583L29 37.5791ZM20.4813 24.1666L17.3396 26.4624C16.9368 26.7846 16.6855 27.1874 16.5856 27.6708C16.4857 28.1541 16.5961 28.5971 16.9167 28.9999C17.2373 29.4027 17.6401 29.6548 18.125 29.7563C18.61 29.8578 19.053 29.7467 19.4542 29.4228L25.3146 25.1333C25.6368 24.8916 25.7979 24.5694 25.7979 24.1666C25.7979 23.7638 25.6368 23.4416 25.3146 23.1999L19.4542 18.9103C19.0514 18.5881 18.6083 18.4769 18.125 18.5768C17.6417 18.6767 17.2389 18.9289 16.9167 19.3333C16.5945 19.7376 16.4736 20.1807 16.5542 20.6624C16.6347 21.1441 16.8965 21.5469 17.3396 21.8708L20.4813 24.1666ZM37.5188 24.1666L40.6604 21.8708C41.0632 21.5485 41.3153 21.1458 41.4168 20.6624C41.5183 20.1791 41.4072 19.736 41.0833 19.3333C40.7595 18.9305 40.3567 18.6791 39.875 18.5793C39.3933 18.4794 38.9502 18.5897 38.5458 18.9103L32.6854 23.1999C32.3632 23.4416 32.2021 23.7638 32.2021 24.1666C32.2021 24.5694 32.3632 24.8916 32.6854 25.1333L38.5458 29.4228C38.9486 29.7451 39.3917 29.8562 39.875 29.7563C40.3583 29.6564 40.7611 29.4043 41.0833 28.9999C41.4056 28.5955 41.5264 28.1525 41.4458 27.6708C41.3653 27.189 41.1035 26.7863 40.6604 26.4624L37.5188 24.1666ZM29 53.1666C25.657 53.1666 22.5153 52.5318 19.575 51.2623C16.6347 49.9927 14.0771 48.2712 11.9021 46.0978C9.7271 43.9244 8.00562 41.3668 6.73768 38.4249C5.46974 35.483 4.83496 32.3414 4.83335 28.9999C4.83174 25.6585 5.46651 22.5168 6.73768 19.5749C8.00885 16.633 9.73032 14.0754 11.9021 11.902C14.0739 9.72861 16.6315 8.00714 19.575 6.73759C22.5185 5.46803 25.6602 4.83325 29 4.83325C32.3398 4.83325 35.4815 5.46803 38.425 6.73759C41.3685 8.00714 43.9262 9.72861 46.0979 11.902C48.2697 14.0754 49.992 16.633 51.2648 19.5749C52.5375 22.5168 53.1715 25.6585 53.1667 28.9999C53.1618 32.3414 52.5271 35.483 51.2623 38.4249C49.9976 41.3668 48.2762 43.9244 46.0979 46.0978C43.9197 48.2712 41.3621 49.9935 38.425 51.2647C35.488 52.5358 32.3463 53.1698 29 53.1666ZM29 48.3333C34.3972 48.3333 38.9688 46.4603 42.7146 42.7145C46.4604 38.9687 48.3334 34.3971 48.3334 28.9999C48.3334 23.6027 46.4604 19.0312 42.7146 15.2853C38.9688 11.5395 34.3972 9.66659 29 9.66659C23.6028 9.66659 19.0313 11.5395 15.2854 15.2853C11.5396 19.0312 9.66668 23.6027 9.66668 28.9999C9.66668 34.3971 11.5396 38.9687 15.2854 42.7145C19.0313 46.4603 23.6028 48.3333 29 48.3333Z" fill="currentColor"/>
<!-- <path d="M5.9375 7.8125H7.5V9.375H5.9375V7.8125ZM12.5 7.8125H14.0625V9.375H12.5V7.8125ZM10 15C11.0774 15 12.1108 14.572 12.8726 13.8101C13.6345 13.0483 14.0625 12.0149 14.0625 10.9375H5.9375C5.9375 12.0149 6.36551 13.0483 7.12738 13.8101C7.88925 14.572 8.92256 15 10 15Z" fill="black"/> -->
</svg>
