<svg width="20" height="20" viewBox="0 0 20 20" fill="none" xmlns="http://www.w3.org/2000/svg">
<path d="M4.16667 18.3334H15.8333C16.7525 18.3334 17.5 17.5859 17.5 16.6667V4.16675C17.5 3.24758 16.7525 2.50008 15.8333 2.50008H14.1667C14.1667 2.27907 14.0789 2.06711 13.9226 1.91083C13.7663 1.75455 13.5543 1.66675 13.3333 1.66675H6.66667C6.44565 1.66675 6.23369 1.75455 6.07741 1.91083C5.92113 2.06711 5.83333 2.27907 5.83333 2.50008H4.16667C3.2475 2.50008 2.5 3.24758 2.5 4.16675V16.6667C2.5 17.5859 3.2475 18.3334 4.16667 18.3334ZM4.16667 4.16675H5.83333V5.83341H14.1667V4.16675H15.8333V16.6667H4.16667V4.16675Z" fill="#2C2C2C"/>
<path d="M9.16667 11.3217L7.6725 9.82756L6.49417 11.0059L9.16667 13.6784L13.5058 9.33922L12.3275 8.16089L9.16667 11.3217Z" fill="#2C2C2C"/>
</svg>
