<svg width="24" height="25" viewBox="0 0 24 25" fill="none" xmlns="http://www.w3.org/2000/svg">
<path fill-rule="evenodd" clip-rule="evenodd" d="M12.1217 6.12252C13.7859 6.12316 15.4051 6.66295 16.7368 7.66104C18.0684 8.65913 19.0409 10.0618 19.5085 11.6589C19.9761 13.2561 19.9137 14.9617 19.3306 16.5204C18.7475 18.0791 17.6751 19.407 16.2741 20.305C14.873 21.2031 13.2187 21.6231 11.5589 21.5021C9.8991 21.3811 8.32319 20.7256 7.06718 19.6339C5.81118 18.5421 4.9427 17.0728 4.59183 15.446C4.24095 13.8192 4.42656 12.1225 5.12086 10.6101C5.19643 10.4262 5.19795 10.2202 5.1251 10.0352C5.05225 9.85025 4.91068 9.70062 4.73002 9.61765C4.54935 9.53468 4.3436 9.5248 4.15582 9.59008C3.96803 9.65536 3.81278 9.79075 3.72254 9.9679C2.88942 11.7829 2.66678 13.819 3.08796 15.7712C3.50914 17.7234 4.55148 19.4866 6.05884 20.7966C7.5662 22.1067 9.45744 22.8931 11.4493 23.0381C13.4411 23.1831 15.4263 22.6789 17.1075 21.6009C18.7887 20.523 20.0754 18.9293 20.7749 17.0587C21.4743 15.1881 21.5489 13.1413 20.9874 11.2247C20.4259 9.30816 19.2586 7.62511 17.6603 6.42767C16.062 5.23023 14.1188 4.58286 12.1217 4.58252V6.12252Z" fill="white"/>
<path d="M12.1218 8.38007V2.3248C12.1217 2.25164 12.1009 2.18001 12.0616 2.11828C12.0223 2.05656 11.9663 2.0073 11.9 1.97628C11.8338 1.94525 11.7601 1.93375 11.6875 1.9431C11.615 1.95246 11.5466 1.9823 11.4904 2.02912L7.85596 5.05675C7.81263 5.09289 7.77777 5.1381 7.75385 5.1892C7.72993 5.24029 7.71753 5.29602 7.71753 5.35243C7.71753 5.40885 7.72993 5.46458 7.75385 5.51567C7.77777 5.56677 7.81263 5.61198 7.85596 5.64811L11.4904 8.67575C11.5466 8.72257 11.615 8.75241 11.6875 8.76177C11.7601 8.77112 11.8338 8.75962 11.9 8.72859C11.9663 8.69757 12.0223 8.64831 12.0616 8.58659C12.1009 8.52486 12.1217 8.45323 12.1218 8.38007Z" fill="white"/>
</svg>
