<svg width="46" height="46" viewBox="0 0 46 46" fill="none" xmlns="http://www.w3.org/2000/svg">
<path d="M28.75 29.1094C29.0944 29.1094 29.4163 29.1768 29.7158 29.3115C30.0153 29.4463 30.2848 29.626 30.5244 29.8506C30.764 30.0752 30.9437 30.3372 31.0635 30.6367C31.1833 30.9362 31.2507 31.2656 31.2656 31.625C31.2656 31.9694 31.1982 32.2913 31.0635 32.5908C30.9287 32.8903 30.749 33.1598 30.5244 33.3994C30.2998 33.639 30.0378 33.8187 29.7383 33.9385C29.4388 34.0583 29.1094 34.1257 28.75 34.1406C28.4056 34.1406 28.0837 34.0732 27.7842 33.9385C27.4847 33.8037 27.2152 33.624 26.9756 33.3994C26.736 33.1748 26.5563 32.9128 26.4365 32.6133C26.3167 32.3138 26.2493 31.9844 26.2344 31.625C26.2344 31.2806 26.3018 30.9587 26.4365 30.6592C26.5713 30.3597 26.751 30.0902 26.9756 29.8506C27.2002 29.611 27.4622 29.4313 27.7617 29.3115C28.0612 29.1917 28.3906 29.1243 28.75 29.1094ZM28.75 37.7344C29.0944 37.7344 29.4163 37.8018 29.7158 37.9365C30.0153 38.0713 30.2848 38.251 30.5244 38.4756C30.764 38.7002 30.9437 38.9622 31.0635 39.2617C31.1833 39.5612 31.2507 39.8906 31.2656 40.25C31.2656 40.5944 31.1982 40.9163 31.0635 41.2158C30.9287 41.5153 30.749 41.7848 30.5244 42.0244C30.2998 42.264 30.0378 42.4437 29.7383 42.5635C29.4388 42.6833 29.1094 42.7507 28.75 42.7656C28.4056 42.7656 28.0837 42.6982 27.7842 42.5635C27.4847 42.4287 27.2152 42.249 26.9756 42.0244C26.736 41.7998 26.5563 41.5378 26.4365 41.2383C26.3167 40.9388 26.2493 40.6094 26.2344 40.25C26.2344 39.9056 26.3018 39.5837 26.4365 39.2842C26.5713 38.9847 26.751 38.7152 26.9756 38.4756C27.2002 38.236 27.4622 38.0563 27.7617 37.9365C28.0612 37.8167 28.3906 37.7493 28.75 37.7344ZM20.125 31.9844C20.4694 31.9844 20.7913 32.0518 21.0908 32.1865C21.3903 32.3213 21.6598 32.501 21.8994 32.7256C22.139 32.9502 22.3187 33.2122 22.4385 33.5117C22.5583 33.8112 22.6257 34.1406 22.6406 34.5C22.6406 34.8444 22.5732 35.1663 22.4385 35.4658C22.3037 35.7653 22.124 36.0348 21.8994 36.2744C21.6748 36.514 21.4128 36.6937 21.1133 36.8135C20.8138 36.9333 20.4844 37.0007 20.125 37.0156C19.7806 37.0156 19.4587 36.9482 19.1592 36.8135C18.8597 36.6787 18.5902 36.499 18.3506 36.2744C18.111 36.0498 17.9313 35.7878 17.8115 35.4883C17.6917 35.1888 17.6243 34.8594 17.6094 34.5C17.6094 34.1556 17.6768 33.8337 17.8115 33.5342C17.9463 33.2347 18.126 32.9652 18.3506 32.7256C18.5752 32.486 18.8372 32.3063 19.1367 32.1865C19.4362 32.0667 19.7656 31.9993 20.125 31.9844ZM20.125 40.6094C20.4694 40.6094 20.7913 40.6768 21.0908 40.8115C21.3903 40.9463 21.6598 41.126 21.8994 41.3506C22.139 41.5752 22.3187 41.8372 22.4385 42.1367C22.5583 42.4362 22.6257 42.7656 22.6406 43.125C22.6406 43.4694 22.5732 43.7913 22.4385 44.0908C22.3037 44.3903 22.124 44.6598 21.8994 44.8994C21.6748 45.139 21.4128 45.3187 21.1133 45.4385C20.8138 45.5583 20.4844 45.6257 20.125 45.6406C19.7806 45.6406 19.4587 45.5732 19.1592 45.4385C18.8597 45.3037 18.5902 45.124 18.3506 44.8994C18.111 44.6748 17.9313 44.4128 17.8115 44.1133C17.6917 43.8138 17.6243 43.4844 17.6094 43.125C17.6094 42.7806 17.6768 42.4587 17.8115 42.1592C17.9463 41.8597 18.126 41.5902 18.3506 41.3506C18.5752 41.111 18.8372 40.9313 19.1367 40.8115C19.4362 40.6917 19.7656 40.6243 20.125 40.6094ZM39.5537 23.2695C40.4971 23.5241 41.3581 23.9134 42.1367 24.4375C42.9154 24.9616 43.5967 25.598 44.1807 26.3467C44.7646 27.0954 45.2139 27.9115 45.5283 28.7949C45.8428 29.6784 46 30.6217 46 31.625C46 32.8229 45.7754 33.9385 45.3262 34.9717C44.877 36.0049 44.263 36.9183 43.4844 37.7119C42.7057 38.5055 41.7848 39.127 40.7217 39.5762C39.6585 40.0254 38.543 40.25 37.375 40.25H34.5V37.375H37.375C38.1686 37.375 38.9098 37.2253 39.5986 36.9258C40.2874 36.6263 40.9014 36.2145 41.4404 35.6904C41.9795 35.1663 42.3913 34.5599 42.6758 33.8711C42.9603 33.1823 43.11 32.4336 43.125 31.625C43.125 30.8014 42.9753 30.0378 42.6758 29.334C42.3763 28.6302 41.9495 28.0238 41.3955 27.5146C40.8415 27.0055 40.2126 26.6087 39.5088 26.3242C38.805 26.0397 38.0413 25.89 37.2178 25.875C37.0381 24.6471 36.6562 23.5091 36.0723 22.4609C35.4883 21.4128 34.7546 20.4993 33.8711 19.7207C32.9876 18.9421 31.9844 18.3356 30.8613 17.9014C29.7383 17.4671 28.5553 17.25 27.3125 17.25C26.1745 17.25 25.0814 17.4372 24.0332 17.8115C22.985 18.1859 22.0342 18.7025 21.1807 19.3613C20.3271 20.0202 19.5934 20.8138 18.9795 21.7422C18.3656 22.6706 17.9089 23.6813 17.6094 24.7744C16.9505 24.2054 16.2243 23.7712 15.4307 23.4717C14.637 23.1722 13.806 23.015 12.9375 23C11.9492 23 11.0208 23.1872 10.1523 23.5615C9.28385 23.9359 8.52018 24.445 7.86133 25.0889C7.20247 25.7327 6.68587 26.4964 6.31152 27.3799C5.93717 28.2633 5.75 29.1992 5.75 30.1875C5.75 31.1758 5.93717 32.1042 6.31152 32.9727C6.68587 33.8411 7.19499 34.6048 7.83887 35.2637C8.48275 35.9225 9.24642 36.4391 10.1299 36.8135C11.0133 37.1878 11.9492 37.375 12.9375 37.375H14.375V40.25H12.9375C11.5449 40.25 10.2422 39.988 9.0293 39.4639C7.81641 38.9398 6.75326 38.221 5.83984 37.3076C4.92643 36.3942 4.20768 35.3311 3.68359 34.1182C3.15951 32.9053 2.88997 31.5951 2.875 30.1875C2.875 29.0345 3.06217 27.9189 3.43652 26.8408C3.81087 25.7627 4.36491 24.7744 5.09863 23.876C3.88574 23.0674 2.86751 22.0641 2.04395 20.8662C1.22038 19.6683 0.64388 18.3581 0.314453 16.9355C1.18294 17.1452 2.03646 17.25 2.875 17.25C4.46224 17.25 5.95215 16.9505 7.34473 16.3516C8.7373 15.7526 9.95768 14.9365 11.0059 13.9033C12.054 12.8701 12.8776 11.6497 13.4766 10.2422C14.0755 8.83464 14.375 7.33724 14.375 5.75C14.375 5.31576 14.3451 4.889 14.2852 4.46973C14.2253 4.05046 14.1504 3.6237 14.0605 3.18945C15.3633 3.48893 16.5612 3.99056 17.6543 4.69434C18.7474 5.39811 19.6908 6.24414 20.4844 7.23242C21.278 8.2207 21.8919 9.32129 22.3262 10.5342C22.7604 11.7471 22.985 13.0273 23 14.375V14.7568C23 14.8916 22.9925 15.0189 22.9775 15.1387C24.3551 14.6296 25.8001 14.375 27.3125 14.375C28.7051 14.375 30.0378 14.5921 31.3105 15.0264C32.5833 15.4606 33.7663 16.0671 34.8594 16.8457C35.9525 17.6243 36.8958 18.5602 37.6895 19.6533C38.4831 20.7464 39.1045 21.9518 39.5537 23.2695ZM7.27734 21.877C8.11589 21.3079 9.01432 20.8737 9.97266 20.5742C10.931 20.2747 11.9193 20.125 12.9375 20.125C14.0456 20.125 15.1462 20.3122 16.2393 20.6865C17.1527 19.1592 18.3281 17.8714 19.7656 16.8232C19.8854 16.4339 19.9753 16.0371 20.0352 15.6328C20.0951 15.2285 20.125 14.8092 20.125 14.375C20.125 13.1022 19.863 11.8968 19.3389 10.7588C18.8148 9.62077 18.0661 8.63997 17.0928 7.81641C16.8682 9.38867 16.404 10.8636 15.7002 12.2412C14.9964 13.6188 14.113 14.8392 13.0498 15.9023C11.9867 16.9655 10.7588 17.8564 9.36621 18.5752C7.97363 19.2939 6.4987 19.7581 4.94141 19.9678C5.27083 20.3571 5.63021 20.709 6.01953 21.0234C6.40885 21.3379 6.82812 21.6224 7.27734 21.877Z" fill="#3748B9"/>
</svg>
