<svg width="48" height="43" viewBox="0 0 48 43" fill="none" xmlns="http://www.w3.org/2000/svg">
<g clip-path="url(#clip0_3_659)">
<path d="M17.0684 42.6667C16.696 42.6667 16.3387 42.5187 16.0754 42.2553C15.812 41.9919 15.664 41.6347 15.664 41.2622C15.664 40.8897 15.812 40.5325 16.0754 40.2691C16.3387 40.0057 16.696 39.8578 17.0684 39.8578H30.2329C30.6054 39.8578 30.9626 40.0057 31.226 40.2691C31.4894 40.5325 31.6373 40.8897 31.6373 41.2622C31.6373 41.6347 31.4894 41.9919 31.226 42.2553C30.9626 42.5187 30.6054 42.6667 30.2329 42.6667H17.0684ZM4.31467 36.6649C3.94218 36.6649 3.58496 36.5169 3.32157 36.2535C3.05819 35.9902 2.91022 35.6329 2.91022 35.2604C2.91022 34.888 3.05819 34.5307 3.32157 34.2674C3.58496 34.004 3.94218 33.856 4.31467 33.856H42.9884C43.3609 33.856 43.7182 34.004 43.9815 34.2674C44.2449 34.5307 44.3929 34.888 44.3929 35.2604C44.3929 35.6329 44.2449 35.9902 43.9815 36.2535C43.7182 36.5169 43.3609 36.6649 42.9884 36.6649H4.31467ZM11.4489 30.6702C11.0764 30.6702 10.7192 30.5223 10.4558 30.2589C10.1924 29.9955 10.0444 29.6383 10.0444 29.2658C10.0444 28.8933 10.1924 28.5361 10.4558 28.2727C10.7192 28.0093 11.0764 27.8613 11.4489 27.8613H35.8524C36.2249 27.8613 36.5822 28.0093 36.8455 28.2727C37.1089 28.5361 37.2569 28.8933 37.2569 29.2658C37.2569 29.6383 37.1089 29.9955 36.8455 30.2589C36.5822 30.5223 36.2249 30.6702 35.8524 30.6702H11.4489ZM33.4453 25.0613H13.8578C13.4853 25.0613 13.1281 24.9134 12.8647 24.65C12.6013 24.3866 12.4533 24.0294 12.4533 23.6569V23.5573C12.4394 20.5874 13.6059 17.7335 15.6961 15.6236C17.7864 13.5137 20.6292 12.3206 23.5991 12.3067C26.5691 12.2928 29.4229 13.4592 31.5328 15.5495C33.6427 17.6397 34.8359 20.4825 34.8498 23.4524V23.4578C34.8571 23.5191 34.8613 23.5809 34.8622 23.6427V23.6587C34.8622 24.0311 34.7143 24.3884 34.4509 24.6518C34.1875 24.9151 33.8303 25.0631 33.4578 25.0631L33.4453 25.0613ZM15.3796 22.2471H31.9218C31.2124 18.2684 27.7796 15.2871 23.6498 15.2871C19.52 15.2871 16.0871 18.2684 15.3867 22.1973L15.3796 22.2489V22.2471ZM40.0782 25.0613C39.7057 25.0613 39.3485 24.9134 39.0851 24.65C38.8217 24.3866 38.6738 24.0294 38.6738 23.6569C38.6738 23.2844 38.8217 22.9272 39.0851 22.6638C39.3485 22.4004 39.7057 22.2524 40.0782 22.2524H45.8951C46.2676 22.2524 46.6248 22.4004 46.8882 22.6638C47.1516 22.9272 47.2996 23.2844 47.2996 23.6569C47.2996 24.0294 47.1516 24.3866 46.8882 24.65C46.6248 24.9134 46.2676 25.0613 45.8951 25.0613H40.0782ZM1.40444 25.0613C1.03196 25.0613 0.674737 24.9134 0.411352 24.65C0.147968 24.3866 0 24.0294 0 23.6569C0 23.2844 0.147968 22.9272 0.411352 22.6638C0.674737 22.4004 1.03196 22.2524 1.40444 22.2524H7.22133C7.59381 22.2524 7.95104 22.4004 8.21443 22.6638C8.47781 22.9272 8.62578 23.2844 8.62578 23.6569C8.62578 24.0294 8.47781 24.3866 8.21443 24.65C7.95104 24.9134 7.59381 25.0613 7.22133 25.0613H1.40444ZM34.2738 13.0329C34.1425 12.9028 34.0383 12.748 33.9672 12.5774C33.8961 12.4069 33.8595 12.2239 33.8595 12.0391C33.8595 11.8543 33.8961 11.6713 33.9672 11.5008C34.0383 11.3302 34.1425 11.1754 34.2738 11.0453L38.3858 6.93156C38.512 6.78594 38.6668 6.66787 38.8406 6.58466C39.0144 6.50146 39.2035 6.45491 39.3961 6.44792C39.5886 6.44093 39.7806 6.47364 39.96 6.54402C40.1394 6.6144 40.3024 6.72094 40.4388 6.85701C40.5752 6.99309 40.6822 7.15578 40.7531 7.33498C40.8239 7.51417 40.8572 7.70603 40.8507 7.89862C40.8442 8.09121 40.7982 8.28041 40.7154 8.45444C40.6327 8.62847 40.515 8.78362 40.3698 8.91022L40.368 8.912L36.256 13.0258C36.0018 13.28 35.6516 13.4364 35.2622 13.4364C34.8729 13.4364 34.5227 13.28 34.2684 13.0258L34.2738 13.0329ZM11.04 13.0329L6.92622 8.91378C6.72892 8.71745 6.5944 8.46693 6.53974 8.19401C6.48508 7.92109 6.51275 7.63808 6.61924 7.38092C6.72573 7.12375 6.90622 6.90403 7.13782 6.74964C7.36941 6.59524 7.64166 6.51315 7.92 6.51378C8.30756 6.51378 8.65956 6.67022 8.91378 6.92622L13.0276 11.04C13.1624 11.1693 13.2701 11.3242 13.3444 11.4956C13.4186 11.667 13.458 11.8516 13.46 12.0384C13.4621 12.2252 13.4268 12.4105 13.3564 12.5836C13.2859 12.7566 13.1816 12.9138 13.0496 13.046C12.9176 13.1783 12.7606 13.2828 12.5877 13.3536C12.4148 13.4244 12.2295 13.4599 12.0427 13.4582C11.8559 13.4565 11.6713 13.4175 11.4997 13.3436C11.3282 13.2696 11.1731 13.1622 11.0436 13.0276L11.04 13.0329ZM22.2453 7.23022V1.40444C22.2453 1.03196 22.3933 0.674737 22.6567 0.411352C22.9201 0.147968 23.2773 0 23.6498 0C24.0223 0 24.3795 0.147968 24.6429 0.411352C24.9063 0.674737 25.0542 1.03196 25.0542 1.40444V7.22311C25.0542 7.59559 24.9063 7.95282 24.6429 8.2162C24.3795 8.47959 24.0223 8.62756 23.6498 8.62756C23.2773 8.62756 22.9201 8.47959 22.6567 8.2162C22.3933 7.95282 22.2453 7.59559 22.2453 7.22311V7.23022Z" fill="#FF9156"/>
</g>
<defs>
<clipPath id="clip0_3_659">
<rect width="48" height="42.6667" fill="white"/>
</clipPath>
</defs>
</svg>
