<svg width="68" height="68" viewBox="0 0 68 68" fill="none" xmlns="http://www.w3.org/2000/svg">
<path d="M33.9998 57.7998C27.6877 57.7998 21.634 55.2923 17.1707 50.8289C12.7073 46.3656 10.1998 40.312 10.1998 33.9998C10.1998 27.6877 12.7073 21.634 17.1707 17.1707C21.634 12.7073 27.6877 10.1998 33.9998 10.1998C40.312 10.1998 46.3656 12.7073 50.8289 17.1707C55.2923 21.634 57.7998 27.6877 57.7998 33.9998C57.7998 40.312 55.2923 46.3656 50.8289 50.8289C46.3656 55.2923 40.312 57.7998 33.9998 57.7998ZM33.9998 61.1998C41.2137 61.1998 48.1321 58.3341 53.2331 53.2331C58.3341 48.1321 61.1998 41.2137 61.1998 33.9998C61.1998 26.7859 58.3341 19.8675 53.2331 14.7665C48.1321 9.66551 41.2137 6.7998 33.9998 6.7998C26.7859 6.7998 19.8675 9.66551 14.7665 14.7665C9.66551 19.8675 6.7998 26.7859 6.7998 33.9998C6.7998 41.2137 9.66551 48.1321 14.7665 53.2331C19.8675 58.3341 26.7859 61.1998 33.9998 61.1998Z" fill="white"/>
<path d="M28.1216 23.987C28.3997 23.8438 28.7118 23.7801 29.0238 23.8029C29.3357 23.8257 29.6353 23.9341 29.8896 24.1162L41.7896 32.6162C42.01 32.7734 42.1896 32.981 42.3135 33.2217C42.4375 33.4624 42.5021 33.7292 42.5021 34C42.5021 34.2707 42.4375 34.5375 42.3135 34.7782C42.1896 35.0189 42.01 35.2265 41.7896 35.3838L29.8896 43.8838C29.6354 44.0657 29.3359 44.174 29.0242 44.1968C28.7124 44.2196 28.4004 44.156 28.1224 44.013C27.8444 43.8699 27.6113 43.653 27.4486 43.3861C27.2859 43.1192 27.1999 42.8126 27.2002 42.5V25.5C27.1999 25.1874 27.2857 24.8809 27.4482 24.614C27.6108 24.347 27.8438 24.1301 28.1216 23.987Z" fill="white"/>
</svg>
