<svg width="20" height="20" viewBox="0 0 20 20" fill="none" xmlns="http://www.w3.org/2000/svg">
<path d="M16.5817 13.3335H6.58168C5.80668 13.3335 5.41918 13.3335 5.10084 13.4185C4.67694 13.5322 4.29042 13.7554 3.98016 14.0658C3.66989 14.3763 3.44681 14.7629 3.33334 15.1868" stroke="black" stroke-width="1.25"/>
<path d="M6.66668 5.83341H13.3333M6.66668 8.75008H10.8333M8.33334 18.3334C5.97668 18.3334 4.79751 18.3334 4.06584 17.6009C3.33334 16.8692 3.33334 15.6901 3.33334 13.3334V6.66675C3.33334 4.31008 3.33334 3.13091 4.06584 2.39925C4.79751 1.66675 5.97668 1.66675 8.33334 1.66675H11.6667C14.0233 1.66675 15.2025 1.66675 15.9342 2.39925C16.6667 3.13091 16.6667 4.31008 16.6667 6.66675M11.6667 18.3334C14.0233 18.3334 15.2025 18.3334 15.9342 17.6009C16.6667 16.8692 16.6667 15.6901 16.6667 13.3334V10.0001" stroke="black" stroke-width="1.25" stroke-linecap="round"/>
</svg>
